{
  "asset": {
    "version": "2.0",
    "generator": "THREE.GLTFExporter"
  },
  "scenes": [
    {
      "nodes": [
        1
      ],
      "name": "AuxScene"
    }
  ],
  "scene": 0,
  "nodes": [
    {
      "mesh": 0
    },
    {
      "children": [
        0
      ]
    }
  ],
  "bufferViews": [
    {
      "buffer": 0,
      "byteOffset": 0,
      "byteLength": 67680,
      "target": 34962,
      "byteStride": 12
    },
    {
      "buffer": 0,
      "byteOffset": 67680,
      "byteLength": 67680,
      "target": 34962,
      "byteStride": 12
    },
    {
      "buffer": 0,
      "byteOffset": 135360,
      "byteLength": 45120,
      "target": 34962,
      "byteStride": 8
    },
    {
      "buffer": 0,
      "byteOffset": 180480,
      "byteLength": 11376,
      "target": 34963
    }
  ],
  "buffers": [
    {
      "byteLength": 191856,
      "uri": "data:application/octet-stream;base64,"
    }
  ],
  "accessors": [
    {
      "bufferView": 0,
      "componentType": 5126,
      "count": 5640,
      "max": [
        1.25,
        1.2938979864120483,
        0.2039797604084015
      ],
      "min": [
        -1.2500001192092896,
        0,
        -0.20397824048995972
      ],
      "type": "VEC3"
    },
    {
      "bufferView": 1,
      "componentType": 5126,
      "count": 5640,
      "max": [
        0.99965500831604,
        0.9975569248199463,
        0.9998618960380554
      ],
      "min": [
        -0.9999117255210876,
        -1,
        -0.9998618960380554
      ],
      "type": "VEC3"
    },
    {
      "bufferView": 2,
      "componentType": 5126,
      "count": 5640,
      "max": [
        0.995248019695282,
        0.98996901512146
      ],
      "min": [
        0.01166400033980608,
        0.014248999767005444
      ],
      "type": "VEC2"
    },
    {
      "bufferView": 3,
      "componentType": 5123,
      "count": 5688,
      "max": [
        5639
      ],
      "min": [
        0
      ],
      "type": "SCALAR"
    }
  ],
  "materials": [
    {
      "pbrMetallicRoughness": {
        "baseColorFactor": [
          0.698039,
          0.698039,
          0.698039,
          1
        ],
        "metallicFactor": 0.5,
        "roughnessFactor": 0.5,
        "baseColorTexture": {
          "index": 0
        }
      },
      "doubleSided": true,
      "name": "mat_0-cat_tex512.jpg"
    }
  ],
  "textures": [
    {
      "sampler": 0,
      "source": 0
    }
  ],
  "samplers": [
    {
      "magFilter": 9729,
      "minFilter": 9987,
      "wrapS": 10497,
      "wrapT": 10497
    }
  ],
  "images": [
    {
      "mimeType": "image/jpeg",
      "uri": "data:image/jpeg;base64,"
    }
  ],
  "meshes": [
    {
      "primitives": [
        {
          "mode": 4,
          "attributes": {
            "POSITION": 0,
            "NORMAL": 1,
            "TEXCOORD_0": 2
          },
          "indices": 3,
          "material": 0
        }
      ]
    }
  ]
}