{"scene":0,"asset":{"generator":"ImageToStl.com","version":"2.0"},"scenes":[{"name":"Scene","nodes":[0]}],"nodes":[{"name":"Node0","children":[1]},{"name":"Node1","mesh":0}],"materials":[{"name":"12248_Bird_v1","pbrMetallicRoughness":{"baseColorFactor":[1.0,1.0,1.0,1.0],"metallicFactor":0.288,"roughnessFactor":0.972,"baseColorTexture":{"index":0}},"emissiveFactor":[0.0,0.0,0.0],"doubleSided":true}],"images":[{"bufferView":0,"name":"","mimeType":"image/jpeg"}],"textures":[{"sampler":0,"source":0}],"samplers":[{"magFilter":9729,"minFilter":9987}],"meshes":[{"name":"Mesh0","primitives":[{"indices":3,"material":0,"attributes":{"POSITION":0,"NORMAL":1,"TEXCOORD_0":2}}]}],"accessors":[{"bufferView":1,"componentType":5126,"count":9582,"type":"VEC3","min":[-14.227,-20.1233,0.3367],"max":[14.227,36.384,56.8056]},{"bufferView":2,"componentType":5126,"count":9582,"type":"VEC3"},{"bufferView":3,"componentType":5126,"count":9582,"type":"VEC2"},{"bufferView":4,"componentType":5123,"count":157536,"type":"SCALAR"}],"bufferViews":[{"buffer":0,"byteLength":719633,"byteOffset":0},{"target":34962,"buffer":0,"byteLength":114984,"byteOffset":719636},{"target":34962,"buffer":0,"byteLength":114984,"byteOffset":834620},{"target":34962,"buffer":0,"byteLength":76656,"byteOffset":949604},{"target":34963,"buffer":0,"byteLength":315072,"byteOffset":1026260}],"buffers":[{"byteLength":1341332,"uri":"data:application/octet-stream;base64,"}]}