{"scene":0,"asset":{"generator":"ImageToStl.com","version":"2.0"},"scenes":[{"name":"Scene","nodes":[0]}],"nodes":[{"name":"Node0","children":[1]},{"name":"Node1","mesh":0}],"materials":[{"name":"01___12265_Fish","pbrMetallicRoughness":{"baseColorFactor":[1.0,1.0,1.0,1.0],"metallicFactor":0.27,"roughnessFactor":0.98,"baseColorTexture":{"index":0}},"emissiveFactor":[0.0,0.0,0.0],"doubleSided":true}],"images":[{"bufferView":0,"name":"","mimeType":"image/jpeg"}],"textures":[{"sampler":0,"source":0}],"samplers":[{"magFilter":9729,"minFilter":9987}],"meshes":[{"name":"Mesh0","primitives":[{"indices":3,"material":0,"attributes":{"POSITION":0,"NORMAL":1,"TEXCOORD_0":2}}]}],"accessors":[{"bufferView":1,"componentType":5126,"count":13199,"type":"VEC3","min":[-13.4128,-4.8468,-8.1616],"max":[15.2918,4.8468,10.5092]},{"bufferView":2,"componentType":5126,"count":13199,"type":"VEC3"},{"bufferView":3,"componentType":5126,"count":13199,"type":"VEC2"},{"bufferView":4,"componentType":5123,"count":221184,"type":"SCALAR"}],"bufferViews":[{"buffer":0,"byteLength":178952,"byteOffset":0},{"target":34962,"buffer":0,"byteLength":158388,"byteOffset":178952},{"target":34962,"buffer":0,"byteLength":158388,"byteOffset":337340},{"target":34962,"buffer":0,"byteLength":105592,"byteOffset":495728},{"target":34963,"buffer":0,"byteLength":442368,"byteOffset":601320}],"buffers":[{"byteLength":1043688,"uri":"data:application/octet-stream;base64,"}]}